v 3.2500 7.5000 0.0000
v 3.2500 7.2716 1.1481
v 3.7500 7.2716 1.1481
vt 0.3117 0.2266
vt 0.3117 0.1979
vt 0.3242 0.1979
vn 0.0000 0.9808 0.1951
vn 0.0000 0.9808 0.1951
vn 0.0000 0.9808 0.1951
f 1/1/1 2/2/2 3/3/3
v 3.7500 7.2716 1.1481
v 3.7500 7.5000 0.0000
v 3.2500 7.5000 0.0000
vt 0.3242 0.1979
vt 0.3242 0.2266
vt 0.3117 0.2266
vn 0.0000 0.9808 0.1951
vn 0.0000 0.9808 0.1951
vn 0.0000 0.9808 0.1951
f 4/4/4 5/5/5 6/6/6
v 3.2500 7.5000 0.0000
v 3.2500 4.5000 0.0000
v 3.2500 7.2716 1.1481
vt 0.4180 0.2266
vt 0.3430 0.2266
vt 0.4123 0.1979
vn -1.0000 0.0000 0.0000
vn -1.0000 0.0000 0.0000
vn -1.0000 0.0000 0.0000
f 7/7/7 8/8/8 9/9/9
v 3.7500 7.2716 1.1481
v 3.7500 4.5000 0.0000
v 3.7500 7.5000 0.0000
vt 0.0487 0.1979
vt 0.1180 0.2266
vt 0.0430 0.2266
vn 1.0000 0.0000 0.0000
vn 1.0000 0.0000 0.0000
vn 1.0000 0.0000 0.0000
f 10/10/10 11/11/11 12/12/12
v 3.2500 7.2716 1.1481
v 3.2500 6.6213 2.1213
v 3.7500 6.6213 2.1213
vt 0.3117 0.1979
vt 0.3117 0.1735
vt 0.3242 0.1735
vn 0.0000 0.8315 0.5556
vn 0.0000 0.8315 0.5556
vn 0.0000 0.8315 0.5556
f 13/13/13 14/14/14 15/15/15
v 3.7500 6.6213 2.1213
v 3.7500 7.2716 1.1481
v 3.2500 7.2716 1.1481
vt 0.3242 0.1735
vt 0.3242 0.1979
vt 0.3117 0.1979
vn 0.0000 0.8315 0.5556
vn 0.0000 0.8315 0.5556
vn 0.0000 0.8315 0.5556
f 16/16/16 17/17/17 18/18/18
v 3.2500 7.2716 1.1481
v 3.2500 4.5000 0.0000
v 3.2500 6.6213 2.1213
vt 0.4123 0.1979
vt 0.3430 0.2266
vt 0.3960 0.1735
vn -1.0000 0.0000 0.0000
vn -1.0000 0.0000 0.0000
vn -1.0000 0.0000 0.0000
f 19/19/19 20/20/20 21/21/21
v 3.7500 6.6213 2.1213
v 3.7500 4.5000 0.0000
v 3.7500 7.2716 1.1481
vt 0.0649 0.1735
vt 0.1180 0.2266
vt 0.0487 0.1979
vn 1.0000 0.0000 0.0000
vn 1.0000 0.0000 0.0000
vn 1.0000 0.0000 0.0000
f 22/22/22 23/23/23 24/24/24
v 3.2500 6.6213 2.1213
v 3.2500 5.6481 2.7716
v 3.7500 5.6481 2.7716
vt 0.3117 0.3921
vt 0.3117 0.3678
vt 0.3242 0.3678
vn 0.0000 0.5556 0.8315
vn 0.0000 0.5556 0.8315
vn 0.0000 0.5556 0.8315
f 25/25/25 26/26/26 27/27/27
v 3.7500 5.6481 2.7716
v 3.7500 6.6213 2.1213
v 3.2500 6.6213 2.1213
vt 0.3242 0.3678
vt 0.3242 0.3921
vt 0.3117 0.3921
vn 0.0000 0.5556 0.8315
vn 0.0000 0.5556 0.8315
vn 0.0000 0.5556 0.8315
f 28/28/28 29/29/29 30/30/30
v 3.2500 6.6213 2.1213
v 3.2500 4.5000 0.0000
v 3.2500 5.6481 2.7716
vt 0.3960 0.1735
vt 0.3430 0.2266
vt 0.3717 0.1573
vn -1.0000 0.0000 0.0000
vn -1.0000 0.0000 0.0000
vn -1.0000 0.0000 0.0000
f 31/31/31 32/32/32 33/33/33
v 3.7500 5.6481 2.7716
v 3.7500 4.5000 0.0000
v 3.7500 6.6213 2.1213
vt 0.0893 0.1573
vt 0.1180 0.2266
vt 0.0649 0.1735
vn 1.0000 0.0000 0.0000
vn 1.0000 0.0000 0.0000
vn 1.0000 0.0000 0.0000
f 34/34/34 35/35/35 36/36/36
v 3.2500 5.6481 2.7716
v 3.2500 4.5000 3.0000
v 3.7500 4.5000 3.0000
vt 0.3117 0.3678
vt 0.3117 0.3391
vt 0.3242 0.3391
vn 0.0000 0.1951 0.9808
vn 0.0000 0.1951 0.9808
vn 0.0000 0.1951 0.9808
f 37/37/37 38/38/38 39/39/39
v 3.7500 4.5000 3.0000
v 3.7500 5.6481 2.7716
v 3.2500 5.6481 2.7716
vt 0.3242 0.3391
vt 0.3242 0.3678
vt 0.3117 0.3678
vn 0.0000 0.1951 0.9808
vn 0.0000 0.1951 0.9808
vn 0.0000 0.1951 0.9808
f 40/40/40 41/41/41 42/42/42
v 3.2500 5.6481 2.7716
v 3.2500 4.5000 0.0000
v 3.2500 4.5000 3.0000
vt 0.3717 0.1573
vt 0.3430 0.2266
vt 0.3430 0.1516
vn -1.0000 0.0000 0.0000
vn -1.0000 0.0000 0.0000
vn -1.0000 0.0000 0.0000
f 43/43/43 44/44/44 45/45/45
v 3.7500 4.5000 3.0000
v 3.7500 4.5000 0.0000
v 3.7500 5.6481 2.7716
vt 0.1180 0.1516
vt 0.1180 0.2266
vt 0.0893 0.1573
vn 1.0000 0.0000 0.0000
vn 1.0000 0.0000 0.0000
vn 1.0000 0.0000 0.0000
f 46/46/46 47/47/47 48/48/48
v 3.2500 4.5000 3.0000
v 3.2500 0.5000 3.0000
v 3.7500 0.5000 3.0000
vt 0.3117 0.3391
vt 0.3117 0.2391
vt 0.3242 0.2391
vn 0.0000 0.0000 1.0000
vn 0.0000 0.0000 1.0000
vn 0.0000 0.0000 1.0000
f 49/49/49 50/50/50 51/51/51
v 3.7500 0.5000 3.0000
v 3.7500 4.5000 3.0000
v 3.2500 4.5000 3.0000
vt 0.3242 0.2391
vt 0.3242 0.3391
vt 0.3117 0.3391
vn 0.0000 0.0000 1.0000
vn 0.0000 0.0000 1.0000
vn 0.0000 0.0000 1.0000
f 52/52/52 53/53/53 54/54/54
v 3.2500 4.5000 3.0000
v 3.2500 4.5000 0.0000
v 3.2500 0.5000 3.0000
vt 0.3430 0.1516
vt 0.3430 0.2266
vt 0.2430 0.1516
vn -1.0000 0.0000 0.0000
vn -1.0000 0.0000 0.0000
vn -1.0000 0.0000 0.0000
f 55/55/55 56/56/56 57/57/57
v 3.7500 0.5000 3.0000
v 3.7500 4.5000 0.0000
v 3.7500 4.5000 3.0000
vt 0.2180 0.1516
vt 0.1180 0.2266
vt 0.1180 0.1516
vn 1.0000 0.0000 0.0000
vn 1.0000 0.0000 0.0000
vn 1.0000 0.0000 0.0000
f 58/58/58 59/59/59 60/60/60
v 3.2500 0.5000 -3.0000
v 3.2500 4.5000 -3.0000
v 3.7500 4.5000 -3.0000
vt 0.1492 0.2391
vt 0.1492 0.3391
vt 0.1367 0.3391
vn 0.0000 0.0000 -1.0000
vn 0.0000 0.0000 -1.0000
vn 0.0000 0.0000 -1.0000
f 61/61/61 62/62/62 63/63/63
v 3.7500 4.5000 -3.0000
v 3.7500 0.5000 -3.0000
v 3.2500 0.5000 -3.0000
vt 0.1367 0.3391
vt 0.1367 0.2391
vt 0.1492 0.2391
vn 0.0000 0.0000 -1.0000
vn 0.0000 0.0000 -1.0000
vn 0.0000 0.0000 -1.0000
f 64/64/64 65/65/65 66/66/66
v 3.2500 0.5000 -3.0000
v 3.2500 4.5000 0.0000
v 3.2500 4.5000 -3.0000
vt 0.2430 0.3016
vt 0.3430 0.2266
vt 0.3430 0.3016
vn -1.0000 0.0000 0.0000
vn -1.0000 0.0000 0.0000
vn -1.0000 0.0000 0.0000
f 67/67/67 68/68/68 69/69/69
v 3.7500 4.5000 -3.0000
v 3.7500 4.5000 0.0000
v 3.7500 0.5000 -3.0000
vt 0.1180 0.3016
vt 0.1180 0.2266
vt 0.2180 0.3016
vn 1.0000 0.0000 0.0000
vn 1.0000 0.0000 0.0000
vn 1.0000 0.0000 0.0000
f 70/70/70 71/71/71 72/72/72
v 3.2500 4.5000 -3.0000
v 3.2500 5.6481 -2.7716
v 3.7500 5.6481 -2.7716
vt 0.1492 0.3391
vt 0.1492 0.3678
vt 0.1367 0.3678
vn 0.0000 0.1951 -0.9808
vn 0.0000 0.1951 -0.9808
vn 0.0000 0.1951 -0.9808
f 73/73/73 74/74/74 75/75/75
v 3.7500 5.6481 -2.7716
v 3.7500 4.5000 -3.0000
v 3.2500 4.5000 -3.0000
vt 0.1367 0.3678
vt 0.1367 0.3391
vt 0.1492 0.3391
vn 0.0000 0.1951 -0.9808
vn 0.0000 0.1951 -0.9808
vn 0.0000 0.1951 -0.9808
f 76/76/76 77/77/77 78/78/78
v 3.2500 4.5000 -3.0000
v 3.2500 4.5000 0.0000
v 3.2500 5.6481 -2.7716
vt 0.3430 0.3016
vt 0.3430 0.2266
vt 0.3717 0.2959
vn -1.0000 0.0000 0.0000
vn -1.0000 0.0000 0.0000
vn -1.0000 0.0000 0.0000
f 79/79/79 80/80/80 81/81/81
v 3.7500 5.6481 -2.7716
v 3.7500 4.5000 0.0000
v 3.7500 4.5000 -3.0000
vt 0.0893 0.2959
vt 0.1180 0.2266
vt 0.1180 0.3016
vn 1.0000 0.0000 0.0000
vn 1.0000 0.0000 0.0000
vn 1.0000 0.0000 0.0000
f 82/82/82 83/83/83 84/84/84
v 3.2500 5.6481 -2.7716
v 3.2500 6.6213 -2.1213
v 3.7500 6.6213 -2.1213
vt 0.1492 0.3678
vt 0.1492 0.3921
vt 0.1367 0.3921
vn 0.0000 0.5556 -0.8315
vn 0.0000 0.5556 -0.8315
vn 0.0000 0.5556 -0.8315
f 85/85/85 86/86/86 87/87/87
v 3.7500 6.6213 -2.1213
v 3.7500 5.6481 -2.7716
v 3.2500 5.6481 -2.7716
vt 0.1367 0.3921
vt 0.1367 0.3678
vt 0.1492 0.3678
vn 0.0000 0.5556 -0.8315
vn 0.0000 0.5556 -0.8315
vn 0.0000 0.5556 -0.8315
f 88/88/88 89/89/89 90/90/90
v 3.2500 5.6481 -2.7716
v 3.2500 4.5000 0.0000
v 3.2500 6.6213 -2.1213
vt 0.3717 0.2959
vt 0.3430 0.2266
vt 0.3960 0.2796
vn -1.0000 0.0000 0.0000
vn -1.0000 0.0000 0.0000
vn -1.0000 0.0000 0.0000
f 91/91/91 92/92/92 93/93/93
v 3.7500 6.6213 -2.1213
v 3.7500 4.5000 0.0000
v 3.7500 5.6481 -2.7716
vt 0.0649 0.2796
vt 0.1180 0.2266
vt 0.0893 0.2959
vn 1.0000 0.0000 0.0000
vn 1.0000 0.0000 0.0000
vn 1.0000 0.0000 0.0000
f 94/94/94 95/95/95 96/96/96
v 3.2500 6.6213 -2.1213
v 3.2500 7.2716 -1.1481
v 3.7500 7.2716 -1.1481
vt 0.3117 0.2796
vt 0.3117 0.2553
vt 0.3242 0.2553
vn 0.0000 0.8315 -0.5556
vn 0.0000 0.8315 -0.5556
vn 0.0000 0.8315 -0.5556
f 97/97/97 98/98/98 99/99/99
v 3.7500 7.2716 -1.1481
v 3.7500 6.6213 -2.1213
v 3.2500 6.6213 -2.1213
vt 0.3242 0.2553
vt 0.3242 0.2796
vt 0.3117 0.2796
vn 0.0000 0.8315 -0.5556
vn 0.0000 0.8315 -0.5556
vn 0.0000 0.8315 -0.5556
f 100/100/100 101/101/101 102/102/102
v 3.2500 6.6213 -2.1213
v 3.2500 4.5000 0.0000
v 3.2500 7.2716 -1.1481
vt 0.3960 0.2796
vt 0.3430 0.2266
vt 0.4123 0.2553
vn -1.0000 0.0000 0.0000
vn -1.0000 0.0000 0.0000
vn -1.0000 0.0000 0.0000
f 103/103/103 104/104/104 105/105/105
v 3.7500 7.2716 -1.1481
v 3.7500 4.5000 0.0000
v 3.7500 6.6213 -2.1213
vt 0.0487 0.2553
vt 0.1180 0.2266
vt 0.0649 0.2796
vn 1.0000 0.0000 0.0000
vn 1.0000 0.0000 0.0000
vn 1.0000 0.0000 0.0000
f 106/106/106 107/107/107 108/108/108
v 3.2500 7.2716 -1.1481
v 3.2500 7.5000 0.0000
v 3.7500 7.5000 0.0000
vt 0.3117 0.2553
vt 0.3117 0.2266
vt 0.3242 0.2266
vn 0.0000 0.9808 -0.1951
vn 0.0000 0.9808 -0.1951
vn 0.0000 0.9808 -0.1951
f 109/109/109 110/110/110 111/111/111
v 3.7500 7.5000 0.0000
v 3.7500 7.2716 -1.1481
v 3.2500 7.2716 -1.1481
vt 0.3242 0.2266
vt 0.3242 0.2553
vt 0.3117 0.2553
vn 0.0000 0.9808 -0.1951
vn 0.0000 0.9808 -0.1951
vn 0.0000 0.9808 -0.1951
f 112/112/112 113/113/113 114/114/114
v 3.2500 7.2716 -1.1481
v 3.2500 4.5000 0.0000
v 3.2500 7.5000 0.0000
vt 0.4123 0.2553
vt 0.3430 0.2266
vt 0.4180 0.2266
vn -1.0000 0.0000 0.0000
vn -1.0000 0.0000 0.0000
vn -1.0000 0.0000 0.0000
f 115/115/115 116/116/116 117/117/117
v 3.7500 7.5000 0.0000
v 3.7500 4.5000 0.0000
v 3.7500 7.2716 -1.1481
vt 0.0430 0.2266
vt 0.1180 0.2266
vt 0.0487 0.2553
vn 1.0000 0.0000 0.0000
vn 1.0000 0.0000 0.0000
vn 1.0000 0.0000 0.0000
f 118/118/118 119/119/119 120/120/120
v 3.7500 4.5000 0.0000
v 3.7500 0.5000 3.0000
v 3.7500 0.5000 -3.0000
vt 0.1180 0.2266
vt 0.2180 0.1516
vt 0.2180 0.3016
vn 1.0000 0.0000 0.0000
vn 1.0000 0.0000 0.0000
vn 1.0000 0.0000 0.0000
f 121/121/121 122/122/122 123/123/123
v -4.0000 7.5000 0.0000
v -4.0000 7.2716 1.1481
v -3.5000 7.2716 1.1481
vt 0.1305 0.2266
vt 0.1305 0.1979
vt 0.1430 0.1979
vn 0.0000 0.9808 0.1951
vn 0.0000 0.9808 0.1951
vn 0.0000 0.9808 0.1951
f 124/124/124 125/125/125 126/126/126
v -3.5000 7.2716 1.1481
v -3.5000 7.5000 0.0000
v -4.0000 7.5000 0.0000
vt 0.1430 0.1979
vt 0.1430 0.2266
vt 0.1305 0.2266
vn 0.0000 0.9808 0.1951
vn 0.0000 0.9808 0.1951
vn 0.0000 0.9808 0.1951
f 127/127/127 128/128/128 129/129/129
v -4.0000 7.5000 0.0000
v -4.0000 4.5000 0.0000
v -4.0000 7.2716 1.1481
vt 0.4180 0.2266
vt 0.3430 0.2266
vt 0.4123 0.1979
vn -1.0000 0.0000 0.0000
vn -1.0000 0.0000 0.0000
vn -1.0000 0.0000 0.0000
f 130/130/130 131/131/131 132/132/132
v -3.5000 7.2716 1.1481
v -3.5000 4.5000 0.0000
v -3.5000 7.5000 0.0000
vt 0.0487 0.1979
vt 0.1180 0.2266
vt 0.0430 0.2266
vn 1.0000 0.0000 0.0000
vn 1.0000 0.0000 0.0000
vn 1.0000 0.0000 0.0000
f 133/133/133 134/134/134 135/135/135
v -4.0000 7.2716 1.1481
v -4.0000 6.6213 2.1213
v -3.5000 6.6213 2.1213
vt 0.1305 0.1979
vt 0.1305 0.1735
vt 0.1430 0.1735
vn 0.0000 0.8315 0.5556
vn 0.0000 0.8315 0.5556
vn 0.0000 0.8315 0.5556
f 136/136/136 137/137/137 138/138/138
v -3.5000 6.6213 2.1213
v -3.5000 7.2716 1.1481
v -4.0000 7.2716 1.1481
vt 0.1430 0.1735
vt 0.1430 0.1979
vt 0.1305 0.1979
vn 0.0000 0.8315 0.5556
vn 0.0000 0.8315 0.5556
vn 0.0000 0.8315 0.5556
f 139/139/139 140/140/140 141/141/141
v -4.0000 7.2716 1.1481
v -4.0000 4.5000 0.0000
v -4.0000 6.6213 2.1213
vt 0.4123 0.1979
vt 0.3430 0.2266
vt 0.3960 0.1735
vn -1.0000 0.0000 0.0000
vn -1.0000 0.0000 0.0000
vn -1.0000 0.0000 0.0000
f 142/142/142 143/143/143 144/144/144
v -3.5000 6.6213 2.1213
v -3.5000 4.5000 0.0000
v -3.5000 7.2716 1.1481
vt 0.0649 0.1735
vt 0.1180 0.2266
vt 0.0487 0.1979
vn 1.0000 0.0000 0.0000
vn 1.0000 0.0000 0.0000
vn 1.0000 0.0000 0.0000
f 145/145/145 146/146/146 147/147/147
v -4.0000 6.6213 2.1213
v -4.0000 5.6481 2.7716
v -3.5000 5.6481 2.7716
vt 0.1305 0.3921
vt 0.1305 0.3678
vt 0.1430 0.3678
vn 0.0000 0.5556 0.8315
vn 0.0000 0.5556 0.8315
vn 0.0000 0.5556 0.8315
f 148/148/148 149/149/149 150/150/150
v -3.5000 5.6481 2.7716
v -3.5000 6.6213 2.1213
v -4.0000 6.6213 2.1213
vt 0.1430 0.3678
vt 0.1430 0.3921
vt 0.1305 0.3921
vn 0.0000 0.5556 0.8315
vn 0.0000 0.5556 0.8315
vn 0.0000 0.5556 0.8315
f 151/151/151 152/152/152 153/153/153
v -4.0000 6.6213 2.1213
v -4.0000 4.5000 0.0000
v -4.0000 5.6481 2.7716
vt 0.3960 0.1735
vt 0.3430 0.2266
vt 0.3717 0.1573
vn -1.0000 0.0000 0.0000
vn -1.0000 0.0000 0.0000
vn -1.0000 0.0000 0.0000
f 154/154/154 155/155/155 156/156/156
v -3.5000 5.6481 2.7716
v -3.5000 4.5000 0.0000
v -3.5000 6.6213 2.1213
vt 0.0893 0.1573
vt 0.1180 0.2266
vt 0.0649 0.1735
vn 1.0000 0.0000 0.0000
vn 1.0000 0.0000 0.0000
vn 1.0000 0.0000 0.0000
f 157/157/157 158/158/158 159/159/159
v -4.0000 5.6481 2.7716
v -4.0000 4.5000 3.0000
v -3.5000 4.5000 3.0000
vt 0.1305 0.3678
vt 0.1305 0.3391
vt 0.1430 0.3391
vn 0.0000 0.1951 0.9808
vn 0.0000 0.1951 0.9808
vn 0.0000 0.1951 0.9808
f 160/160/160 161/161/161 162/162/162
v -3.5000 4.5000 3.0000
v -3.5000 5.6481 2.7716
v -4.0000 5.6481 2.7716
vt 0.1430 0.3391
vt 0.1430 0.3678
vt 0.1305 0.3678
vn 0.0000 0.1951 0.9808
vn 0.0000 0.1951 0.9808
vn 0.0000 0.1951 0.9808
f 163/163/163 164/164/164 165/165/165
v -4.0000 5.6481 2.7716
v -4.0000 4.5000 0.0000
v -4.0000 4.5000 3.0000
vt 0.3717 0.1573
vt 0.3430 0.2266
vt 0.3430 0.1516
vn -1.0000 0.0000 0.0000
vn -1.0000 0.0000 0.0000
vn -1.0000 0.0000 0.0000
f 166/166/166 167/167/167 168/168/168
v -3.5000 4.5000 3.0000
v -3.5000 4.5000 0.0000
v -3.5000 5.6481 2.7716
vt 0.1180 0.1516
vt 0.1180 0.2266
vt 0.0893 0.1573
vn 1.0000 0.0000 0.0000
vn 1.0000 0.0000 0.0000
vn 1.0000 0.0000 0.0000
f 169/169/169 170/170/170 171/171/171
v -4.0000 4.5000 3.0000
v -4.0000 0.5000 3.0000
v -3.5000 0.5000 3.0000
vt 0.1305 0.3391
vt 0.1305 0.2391
vt 0.1430 0.2391
vn 0.0000 0.0000 1.0000
vn 0.0000 0.0000 1.0000
vn 0.0000 0.0000 1.0000
f 172/172/172 173/173/173 174/174/174
v -3.5000 0.5000 3.0000
v -3.5000 4.5000 3.0000
v -4.0000 4.5000 3.0000
vt 0.1430 0.2391
vt 0.1430 0.3391
vt 0.1305 0.3391
vn 0.0000 0.0000 1.0000
vn 0.0000 0.0000 1.0000
vn 0.0000 0.0000 1.0000
f 175/175/175 176/176/176 177/177/177
v -4.0000 4.5000 3.0000
v -4.0000 4.5000 0.0000
v -4.0000 0.5000 3.0000
vt 0.3430 0.1516
vt 0.3430 0.2266
vt 0.2430 0.1516
vn -1.0000 0.0000 0.0000
vn -1.0000 0.0000 0.0000
vn -1.0000 0.0000 0.0000
f 178/178/178 179/179/179 180/180/180
v -3.5000 0.5000 3.0000
v -3.5000 4.5000 0.0000
v -3.5000 4.5000 3.0000
vt 0.2180 0.1516
vt 0.1180 0.2266
vt 0.1180 0.1516
vn 1.0000 0.0000 0.0000
vn 1.0000 0.0000 0.0000
vn 1.0000 0.0000 0.0000
f 181/181/181 182/182/182 183/183/183
v -4.0000 0.5000 -3.0000
v -4.0000 4.5000 -3.0000
v -3.5000 4.5000 -3.0000
vt 0.3305 0.2391
vt 0.3305 0.3391
vt 0.3180 0.3391
vn 0.0000 0.0000 -1.0000
vn 0.0000 0.0000 -1.0000
vn 0.0000 0.0000 -1.0000
f 184/184/184 185/185/185 186/186/186
v -3.5000 4.5000 -3.0000
v -3.5000 0.5000 -3.0000
v -4.0000 0.5000 -3.0000
vt 0.3180 0.3391
vt 0.3180 0.2391
vt 0.3305 0.2391
vn 0.0000 0.0000 -1.0000
vn 0.0000 0.0000 -1.0000
vn 0.0000 0.0000 -1.0000
f 187/187/187 188/188/188 189/189/189
v -4.0000 0.5000 -3.0000
v -4.0000 4.5000 0.0000
v -4.0000 4.5000 -3.0000
vt 0.2430 0.3016
vt 0.3430 0.2266
vt 0.3430 0.3016
vn -1.0000 0.0000 0.0000
vn -1.0000 0.0000 0.0000
vn -1.0000 0.0000 0.0000
f 190/190/190 191/191/191 192/192/192
v -3.5000 4.5000 -3.0000
v -3.5000 4.5000 0.0000
v -3.5000 0.5000 -3.0000
vt 0.1180 0.3016
vt 0.1180 0.2266
vt 0.2180 0.3016
vn 1.0000 0.0000 0.0000
vn 1.0000 0.0000 0.0000
vn 1.0000 0.0000 0.0000
f 193/193/193 194/194/194 195/195/195
v -4.0000 4.5000 -3.0000
v -4.0000 5.6481 -2.7716
v -3.5000 5.6481 -2.7716
vt 0.3305 0.3391
vt 0.3305 0.3678
vt 0.3180 0.3678
vn 0.0000 0.1951 -0.9808
vn 0.0000 0.1951 -0.9808
vn 0.0000 0.1951 -0.9808
f 196/196/196 197/197/197 198/198/198
v -3.5000 5.6481 -2.7716
v -3.5000 4.5000 -3.0000
v -4.0000 4.5000 -3.0000
vt 0.3180 0.3678
vt 0.3180 0.3391
vt 0.3305 0.3391
vn 0.0000 0.1951 -0.9808
vn 0.0000 0.1951 -0.9808
vn 0.0000 0.1951 -0.9808
f 199/199/199 200/200/200 201/201/201
v -4.0000 4.5000 -3.0000
v -4.0000 4.5000 0.0000
v -4.0000 5.6481 -2.7716
vt 0.3430 0.3016
vt 0.3430 0.2266
vt 0.3717 0.2959
vn -1.0000 0.0000 0.0000
vn -1.0000 0.0000 0.0000
vn -1.0000 0.0000 0.0000
f 202/202/202 203/203/203 204/204/204
v -3.5000 5.6481 -2.7716
v -3.5000 4.5000 0.0000
v -3.5000 4.5000 -3.0000
vt 0.0893 0.2959
vt 0.1180 0.2266
vt 0.1180 0.3016
vn 1.0000 0.0000 0.0000
vn 1.0000 0.0000 0.0000
vn 1.0000 0.0000 0.0000
f 205/205/205 206/206/206 207/207/207
v -4.0000 5.6481 -2.7716
v -4.0000 6.6213 -2.1213
v -3.5000 6.6213 -2.1213
vt 0.3305 0.3678
vt 0.3305 0.3921
vt 0.3180 0.3921
vn 0.0000 0.5556 -0.8315
vn 0.0000 0.5556 -0.8315
vn 0.0000 0.5556 -0.8315
f 208/208/208 209/209/209 210/210/210
v -3.5000 6.6213 -2.1213
v -3.5000 5.6481 -2.7716
v -4.0000 5.6481 -2.7716
vt 0.3180 0.3921
vt 0.3180 0.3678
vt 0.3305 0.3678
vn 0.0000 0.5556 -0.8315
vn 0.0000 0.5556 -0.8315
vn 0.0000 0.5556 -0.8315
f 211/211/211 212/212/212 213/213/213
v -4.0000 5.6481 -2.7716
v -4.0000 4.5000 0.0000
v -4.0000 6.6213 -2.1213
vt 0.3717 0.2959
vt 0.3430 0.2266
vt 0.3960 0.2796
vn -1.0000 0.0000 0.0000
vn -1.0000 0.0000 0.0000
vn -1.0000 0.0000 0.0000
f 214/214/214 215/215/215 216/216/216
v -3.5000 6.6213 -2.1213
v -3.5000 4.5000 0.0000
v -3.5000 5.6481 -2.7716
vt 0.0649 0.2796
vt 0.1180 0.2266
vt 0.0893 0.2959
vn 1.0000 0.0000 0.0000
vn 1.0000 0.0000 0.0000
vn 1.0000 0.0000 0.0000
f 217/217/217 218/218/218 219/219/219
v -4.0000 6.6213 -2.1213
v -4.0000 7.2716 -1.1481
v -3.5000 7.2716 -1.1481
vt 0.1305 0.2796
vt 0.1305 0.2553
vt 0.1430 0.2553
vn 0.0000 0.8315 -0.5556
vn 0.0000 0.8315 -0.5556
vn 0.0000 0.8315 -0.5556
f 220/220/220 221/221/221 222/222/222
v -3.5000 7.2716 -1.1481
v -3.5000 6.6213 -2.1213
v -4.0000 6.6213 -2.1213
vt 0.1430 0.2553
vt 0.1430 0.2796
vt 0.1305 0.2796
vn 0.0000 0.8315 -0.5556
vn 0.0000 0.8315 -0.5556
vn 0.0000 0.8315 -0.5556
f 223/223/223 224/224/224 225/225/225
v -4.0000 6.6213 -2.1213
v -4.0000 4.5000 0.0000
v -4.0000 7.2716 -1.1481
vt 0.3960 0.2796
vt 0.3430 0.2266
vt 0.4123 0.2553
vn -1.0000 0.0000 0.0000
vn -1.0000 0.0000 0.0000
vn -1.0000 0.0000 0.0000
f 226/226/226 227/227/227 228/228/228
v -3.5000 7.2716 -1.1481
v -3.5000 4.5000 0.0000
v -3.5000 6.6213 -2.1213
vt 0.0487 0.2553
vt 0.1180 0.2266
vt 0.0649 0.2796
vn 1.0000 0.0000 0.0000
vn 1.0000 0.0000 0.0000
vn 1.0000 0.0000 0.0000
f 229/229/229 230/230/230 231/231/231
v -4.0000 7.2716 -1.1481
v -4.0000 7.5000 0.0000
v -3.5000 7.5000 0.0000
vt 0.1305 0.2553
vt 0.1305 0.2266
vt 0.1430 0.2266
vn 0.0000 0.9808 -0.1951
vn 0.0000 0.9808 -0.1951
vn 0.0000 0.9808 -0.1951
f 232/232/232 233/233/233 234/234/234
v -3.5000 7.5000 0.0000
v -3.5000 7.2716 -1.1481
v -4.0000 7.2716 -1.1481
vt 0.1430 0.2266
vt 0.1430 0.2553
vt 0.1305 0.2553
vn 0.0000 0.9808 -0.1951
vn 0.0000 0.9808 -0.1951
vn 0.0000 0.9808 -0.1951
f 235/235/235 236/236/236 237/237/237
v -4.0000 7.2716 -1.1481
v -4.0000 4.5000 0.0000
v -4.0000 7.5000 0.0000
vt 0.4123 0.2553
vt 0.3430 0.2266
vt 0.4180 0.2266
vn -1.0000 0.0000 0.0000
vn -1.0000 0.0000 0.0000
vn -1.0000 0.0000 0.0000
f 238/238/238 239/239/239 240/240/240
v -3.5000 7.5000 0.0000
v -3.5000 4.5000 0.0000
v -3.5000 7.2716 -1.1481
vt 0.0430 0.2266
vt 0.1180 0.2266
vt 0.0487 0.2553
vn 1.0000 0.0000 0.0000
vn 1.0000 0.0000 0.0000
vn 1.0000 0.0000 0.0000
f 241/241/241 242/242/242 243/243/243
v -3.5000 4.5000 0.0000
v -3.5000 0.5000 3.0000
v -3.5000 0.5000 -3.0000
vt 0.1180 0.2266
vt 0.2180 0.1516
vt 0.2180 0.3016
vn 1.0000 0.0000 0.0000
vn 1.0000 0.0000 0.0000
vn 1.0000 0.0000 0.0000
f 244/244/244 245/245/245 246/246/246
v 3.2500 0.5000 -3.0000
v 3.2500 0.5000 3.0000
v 3.2500 4.5000 0.0000
vt 0.2430 0.3016
vt 0.2430 0.1516
vt 0.3430 0.2266
vn -1.0000 0.0000 0.0000
vn -1.0000 0.0000 0.0000
vn -1.0000 0.0000 0.0000
f 247/247/247 248/248/248 249/249/249
v -4.0000 0.5000 -3.0000
v -4.0000 0.5000 3.0000
v -4.0000 4.5000 0.0000
vt 0.2430 0.3016
vt 0.2430 0.1516
vt 0.3430 0.2266
vn -1.0000 0.0000 0.0000
vn -1.0000 0.0000 0.0000
vn -1.0000 0.0000 0.0000
f 250/250/250 251/251/251 252/252/252
v -4.0000 0.5000 -3.0000
v -4.0000 0.5000 3.0000
v 3.7500 0.5000 -3.0000
vt 0.1305 0.3016
vt 0.1305 0.1516
vt 0.3242 0.3016
vn 0.0000 1.0000 0.0000
vn 0.0000 1.0000 0.0000
vn 0.0000 1.0000 0.0000
f 253/253/253 254/254/254 255/255/255
v 3.7500 0.5000 3.0000
v 3.7500 0.5000 -3.0000
v -4.0000 0.5000 3.0000
vt 0.3242 0.1516
vt 0.3242 0.3016
vt 0.1305 0.1516
vn 0.0000 1.0000 0.0000
vn 0.0000 1.0000 0.0000
vn 0.0000 1.0000 0.0000
f 256/256/256 257/257/257 258/258/258
v 3.7500 0.0000 3.0000
v -4.0000 0.0000 3.0000
v 3.7500 0.0000 -3.0000
vt 0.1367 0.1516
vt 0.3305 0.1516
vt 0.1367 0.3016
vn 0.0000 -1.0000 0.0000
vn 0.0000 -1.0000 0.0000
vn 0.0000 -1.0000 0.0000
f 259/259/259 260/260/260 261/261/261
v -4.0000 0.0000 -3.0000
v 3.7500 0.0000 -3.0000
v -4.0000 0.0000 3.0000
vt 0.3305 0.3016
vt 0.1367 0.3016
vt 0.3305 0.1516
vn 0.0000 -1.0000 0.0000
vn 0.0000 -1.0000 0.0000
vn 0.0000 -1.0000 0.0000
f 262/262/262 263/263/263 264/264/264
v 3.7500 0.5000 3.0000
v -4.0000 0.5000 3.0000
v 3.7500 0.0000 3.0000
vt 0.3242 0.2391
vt 0.1305 0.2391
vt 0.3242 0.2266
vn 0.0000 0.0000 1.0000
vn 0.0000 0.0000 1.0000
vn 0.0000 0.0000 1.0000
f 265/265/265 266/266/266 267/267/267
v -4.0000 0.0000 3.0000
v 3.7500 0.0000 3.0000
v -4.0000 0.5000 3.0000
vt 0.1305 0.2266
vt 0.3242 0.2266
vt 0.1305 0.2391
vn 0.0000 0.0000 1.0000
vn 0.0000 0.0000 1.0000
vn 0.0000 0.0000 1.0000
f 268/268/268 269/269/269 270/270/270
v -4.0000 0.5000 -3.0000
v 3.7500 0.5000 -3.0000
v -4.0000 0.0000 -3.0000
vt 0.3305 0.2391
vt 0.1367 0.2391
vt 0.3305 0.2266
vn 0.0000 0.0000 -1.0000
vn 0.0000 0.0000 -1.0000
vn 0.0000 0.0000 -1.0000
f 271/271/271 272/272/272 273/273/273
v 3.7500 0.0000 -3.0000
v -4.0000 0.0000 -3.0000
v 3.7500 0.5000 -3.0000
vt 0.1367 0.2266
vt 0.3305 0.2266
vt 0.1367 0.2391
vn 0.0000 0.0000 -1.0000
vn 0.0000 0.0000 -1.0000
vn 0.0000 0.0000 -1.0000
f 274/274/274 275/275/275 276/276/276
v 3.7500 0.5000 -3.0000
v 3.7500 0.5000 3.0000
v 3.7500 0.0000 -3.0000
vt 0.2180 0.3016
vt 0.2180 0.1516
vt 0.2305 0.3016
vn 1.0000 0.0000 0.0000
vn 1.0000 0.0000 0.0000
vn 1.0000 0.0000 0.0000
f 277/277/277 278/278/278 279/279/279
v 3.7500 0.0000 3.0000
v 3.7500 0.0000 -3.0000
v 3.7500 0.5000 3.0000
vt 0.2305 0.1516
vt 0.2305 0.3016
vt 0.2180 0.1516
vn 1.0000 0.0000 0.0000
vn 1.0000 0.0000 0.0000
vn 1.0000 0.0000 0.0000
f 280/280/280 281/281/281 282/282/282
v -4.0000 0.5000 3.0000
v -4.0000 0.5000 -3.0000
v -4.0000 0.0000 3.0000
vt 0.2430 0.1516
vt 0.2430 0.3016
vt 0.2305 0.1516
vn -1.0000 0.0000 0.0000
vn -1.0000 0.0000 0.0000
vn -1.0000 0.0000 0.0000
f 283/283/283 284/284/284 285/285/285
v -4.0000 0.0000 -3.0000
v -4.0000 0.0000 3.0000
v -4.0000 0.5000 -3.0000
vt 0.2305 0.3016
vt 0.2305 0.1516
vt 0.2430 0.3016
vn -1.0000 0.0000 0.0000
vn -1.0000 0.0000 0.0000
vn -1.0000 0.0000 0.0000
f 286/286/286 287/287/287 288/288/288
