# Exported from Wings 3D 1.5.3
mtllib rightPalm.mtl
o unnamed_object1
#240 vertices, 80 faces
v -1.40000000 -2.05000000 0.65000000
v 1.30000000 -2.05000000 0.65000000
v -1.40000000 1.05000000 0.65000000
v 1.30000000 1.05000000 0.65000000
v -1.40000000 1.05000000 0.65000000
v 1.30000000 -2.05000000 0.65000000
v 1.30000000 1.05000000 -0.75000000
v 1.30000000 -2.05000000 -0.75000000
v -1.40000000 1.05000000 -0.75000000
v -1.40000000 -2.05000000 -0.75000000
v -1.40000000 1.05000000 -0.75000000
v 1.30000000 -2.05000000 -0.75000000
v 1.30000000 1.05000000 0.65000000
v 1.30000000 1.05000000 -0.75000000
v -1.40000000 1.05000000 0.65000000
v -1.40000000 1.05000000 -0.75000000
v -1.40000000 1.05000000 0.65000000
v 1.30000000 1.05000000 -0.75000000
v -1.40000000 -2.05000000 0.65000000
v -1.40000000 -2.05000000 -0.75000000
v 1.30000000 -2.05000000 0.65000000
v 1.30000000 -2.05000000 -0.75000000
v 1.30000000 -2.05000000 0.65000000
v -1.40000000 -2.05000000 -0.75000000
v 1.30000000 -2.05000000 0.65000000
v 1.30000000 -2.05000000 -0.75000000
v 1.30000000 1.05000000 0.65000000
v 1.30000000 1.05000000 -0.75000000
v 1.30000000 1.05000000 0.65000000
v 1.30000000 -2.05000000 -0.75000000
v -1.40000000 1.05000000 0.65000000
v -1.40000000 1.05000000 -0.75000000
v -1.40000000 -2.05000000 0.65000000
v -1.40000000 -2.05000000 -0.75000000
v -1.40000000 -2.05000000 0.65000000
v -1.40000000 1.05000000 -0.75000000
v -1.80000000 -1.55000000 0.90000000
v -2.70000000 -2.20000000 0.60000000
v 0.0000000e+0 -0.95000000 1.40000000
v -2.70000000 -2.20000000 0.60000000
v -3.25000000 -3.50000000 0.50000000
v 0.0000000e+0 -0.95000000 1.40000000
v -3.25000000 -3.50000000 0.50000000
v -3.55000000 -5.85000000 0.20000000
v 0.0000000e+0 -0.95000000 1.40000000
v -3.55000000 -5.85000000 0.20000000
v -2.35000000 -6.60000000 0.0000000e+0
v 0.0000000e+0 -0.95000000 1.40000000
v -2.35000000 -6.60000000 0.0000000e+0
v -0.85000000 -7.05000000 0.0000000e+0
v 0.0000000e+0 -0.95000000 1.40000000
v -0.85000000 -7.05000000 0.0000000e+0
v 0.90000000 -7.05000000 0.0000000e+0
v 0.0000000e+0 -0.95000000 1.40000000
v 0.90000000 -7.05000000 0.0000000e+0
v 2.50000000 -6.55000000 0.0000000e+0
v 0.0000000e+0 -0.95000000 1.40000000
v 2.50000000 -6.55000000 0.0000000e+0
v 2.35000000 -4.30000000 0.30000000
v 0.0000000e+0 -0.95000000 1.40000000
v 2.35000000 -4.30000000 0.30000000
v 2.95000000 -2.95000000 0.60000000
v 0.0000000e+0 -0.95000000 1.40000000
v 2.95000000 -2.95000000 0.60000000
v 1.80000000 -1.55000000 0.80000000
v 0.0000000e+0 -0.95000000 1.40000000
v -1.80000000 -1.55000000 0.90000000
v -1.80000000 -1.55000000 -0.40000000
v -2.70000000 -2.20000000 0.60000000
v -2.70000000 -2.20000000 -0.40000000
v -2.70000000 -2.20000000 0.60000000
v -1.80000000 -1.55000000 -0.40000000
v 0.0000000e+0 -0.95000000 1.40000000
v 0.0000000e+0 -1.55000000 -0.40000000
v -1.80000000 -1.55000000 0.90000000
v -1.80000000 -1.55000000 -0.40000000
v -1.80000000 -1.55000000 0.90000000
v 0.0000000e+0 -1.55000000 -0.40000000
v -2.70000000 -2.20000000 0.60000000
v -2.70000000 -2.20000000 -0.40000000
v -3.25000000 -3.50000000 0.50000000
v -3.25000000 -3.50000000 -0.40000000
v -3.25000000 -3.50000000 0.50000000
v -2.70000000 -2.20000000 -0.40000000
v -3.25000000 -3.50000000 0.50000000
v -3.25000000 -3.50000000 -0.40000000
v -3.55000000 -5.85000000 0.20000000
v -3.55000000 -5.85000000 -0.40000000
v -3.55000000 -5.85000000 0.20000000
v -3.25000000 -3.50000000 -0.40000000
v -3.55000000 -5.85000000 0.20000000
v -3.55000000 -5.85000000 -0.40000000
v -2.35000000 -6.60000000 0.0000000e+0
v -2.35000000 -6.60000000 -0.40000000
v -2.35000000 -6.60000000 0.0000000e+0
v -3.55000000 -5.85000000 -0.40000000
v -2.35000000 -6.60000000 0.0000000e+0
v -2.35000000 -6.60000000 -0.40000000
v -0.85000000 -7.05000000 0.0000000e+0
v -0.85000000 -7.05000000 -0.40000000
v -0.85000000 -7.05000000 0.0000000e+0
v -2.35000000 -6.60000000 -0.40000000
v -0.85000000 -7.05000000 0.0000000e+0
v -0.85000000 -7.05000000 -0.40000000
v 0.90000000 -7.05000000 0.0000000e+0
v 0.90000000 -7.05000000 -0.40000000
v 0.90000000 -7.05000000 0.0000000e+0
v -0.85000000 -7.05000000 -0.40000000
v 0.90000000 -7.05000000 0.0000000e+0
v 0.90000000 -7.05000000 -0.40000000
v 2.50000000 -6.55000000 0.0000000e+0
v 2.50000000 -6.55000000 -0.40000000
v 2.50000000 -6.55000000 0.0000000e+0
v 0.90000000 -7.05000000 -0.40000000
v 2.50000000 -6.55000000 0.0000000e+0
v 2.50000000 -6.55000000 -0.40000000
v 2.35000000 -4.30000000 0.30000000
v 2.35000000 -4.30000000 -0.40000000
v 2.35000000 -4.30000000 0.30000000
v 2.50000000 -6.55000000 -0.40000000
v 2.35000000 -4.30000000 0.30000000
v 2.35000000 -4.30000000 -0.40000000
v 2.95000000 -2.95000000 0.60000000
v 2.95000000 -2.95000000 -0.40000000
v 2.95000000 -2.95000000 0.60000000
v 2.35000000 -4.30000000 -0.40000000
v 2.95000000 -2.95000000 0.60000000
v 2.95000000 -2.95000000 -0.40000000
v 1.80000000 -1.55000000 0.80000000
v 1.80000000 -1.55000000 -0.40000000
v 1.80000000 -1.55000000 0.80000000
v 2.95000000 -2.95000000 -0.40000000
v 1.80000000 -1.55000000 0.80000000
v 1.80000000 -1.55000000 -0.40000000
v 0.0000000e+0 -0.95000000 1.40000000
v 0.0000000e+0 -1.55000000 -0.40000000
v 0.0000000e+0 -0.95000000 1.40000000
v 1.80000000 -1.55000000 -0.40000000
v -2.70000000 -2.20000000 -1.10000000
v -1.80000000 -1.55000000 -0.90000000
v 0.0000000e+0 -3.15000000 -1.30000000
v -3.25000000 -3.50000000 -1.10000000
v -2.70000000 -2.20000000 -1.10000000
v 0.0000000e+0 -3.15000000 -1.30000000
v -3.55000000 -5.85000000 -1.05000000
v -3.25000000 -3.50000000 -1.10000000
v 0.0000000e+0 -3.15000000 -1.30000000
v -2.35000000 -6.60000000 -0.95000000
v -3.55000000 -5.85000000 -1.05000000
v 0.0000000e+0 -3.15000000 -1.30000000
v -0.85000000 -7.05000000 -0.90000000
v -2.35000000 -6.60000000 -0.95000000
v 0.0000000e+0 -3.15000000 -1.30000000
v 0.90000000 -7.05000000 -0.90000000
v -0.85000000 -7.05000000 -0.90000000
v 0.0000000e+0 -3.15000000 -1.30000000
v 2.50000000 -6.55000000 -0.90000000
v 0.90000000 -7.05000000 -0.90000000
v 0.0000000e+0 -3.15000000 -1.30000000
v 2.35000000 -4.30000000 -1.10000000
v 2.50000000 -6.55000000 -0.90000000
v 0.0000000e+0 -3.15000000 -1.30000000
v 2.95000000 -2.95000000 -1.10000000
v 2.35000000 -4.30000000 -1.10000000
v 0.0000000e+0 -3.15000000 -1.30000000
v 1.80000000 -1.55000000 -0.90000000
v 2.95000000 -2.95000000 -1.10000000
v 0.0000000e+0 -3.15000000 -1.30000000
v -1.80000000 -1.55000000 -0.40000000
v -1.80000000 -1.55000000 -0.90000000
v -2.70000000 -2.20000000 -1.10000000
v -2.70000000 -2.20000000 -1.10000000
v -2.70000000 -2.20000000 -0.40000000
v -1.80000000 -1.55000000 -0.40000000
v 0.0000000e+0 -1.55000000 -0.40000000
v 0.0000000e+0 -3.15000000 -1.30000000
v -1.80000000 -1.55000000 -0.90000000
v -1.80000000 -1.55000000 -0.90000000
v -1.80000000 -1.55000000 -0.40000000
v 0.0000000e+0 -1.55000000 -0.40000000
v -2.70000000 -2.20000000 -0.40000000
v -2.70000000 -2.20000000 -1.10000000
v -3.25000000 -3.50000000 -1.10000000
v -3.25000000 -3.50000000 -1.10000000
v -3.25000000 -3.50000000 -0.40000000
v -2.70000000 -2.20000000 -0.40000000
v -3.25000000 -3.50000000 -0.40000000
v -3.25000000 -3.50000000 -1.10000000
v -3.55000000 -5.85000000 -1.05000000
v -3.55000000 -5.85000000 -1.05000000
v -3.55000000 -5.85000000 -0.40000000
v -3.25000000 -3.50000000 -0.40000000
v -3.55000000 -5.85000000 -0.40000000
v -3.55000000 -5.85000000 -1.05000000
v -2.35000000 -6.60000000 -0.95000000
v -2.35000000 -6.60000000 -0.95000000
v -2.35000000 -6.60000000 -0.40000000
v -3.55000000 -5.85000000 -0.40000000
v -2.35000000 -6.60000000 -0.40000000
v -2.35000000 -6.60000000 -0.95000000
v -0.85000000 -7.05000000 -0.90000000
v -0.85000000 -7.05000000 -0.90000000
v -0.85000000 -7.05000000 -0.40000000
v -2.35000000 -6.60000000 -0.40000000
v -0.85000000 -7.05000000 -0.40000000
v -0.85000000 -7.05000000 -0.90000000
v 0.90000000 -7.05000000 -0.90000000
v 0.90000000 -7.05000000 -0.90000000
v 0.90000000 -7.05000000 -0.40000000
v -0.85000000 -7.05000000 -0.40000000
v 0.90000000 -7.05000000 -0.40000000
v 0.90000000 -7.05000000 -0.90000000
v 2.50000000 -6.55000000 -0.90000000
v 2.50000000 -6.55000000 -0.90000000
v 2.50000000 -6.55000000 -0.40000000
v 0.90000000 -7.05000000 -0.40000000
v 2.50000000 -6.55000000 -0.40000000
v 2.50000000 -6.55000000 -0.90000000
v 2.35000000 -4.30000000 -1.10000000
v 2.35000000 -4.30000000 -1.10000000
v 2.35000000 -4.30000000 -0.40000000
v 2.50000000 -6.55000000 -0.40000000
v 2.35000000 -4.30000000 -0.40000000
v 2.35000000 -4.30000000 -1.10000000
v 2.95000000 -2.95000000 -1.10000000
v 2.95000000 -2.95000000 -1.10000000
v 2.95000000 -2.95000000 -0.40000000
v 2.35000000 -4.30000000 -0.40000000
v 2.95000000 -2.95000000 -0.40000000
v 2.95000000 -2.95000000 -1.10000000
v 1.80000000 -1.55000000 -0.90000000
v 1.80000000 -1.55000000 -0.90000000
v 1.80000000 -1.55000000 -0.40000000
v 2.95000000 -2.95000000 -0.40000000
v 1.80000000 -1.55000000 -0.40000000
v 1.80000000 -1.55000000 -0.90000000
v 0.0000000e+0 -3.15000000 -1.30000000
v 0.0000000e+0 -3.15000000 -1.30000000
v 0.0000000e+0 -1.55000000 -0.40000000
v 1.80000000 -1.55000000 -0.40000000
vt -9.0000000e-2 0.90720000
vt -9.0000000e-2 0.91720000
vt -1.5000000e-2 0.90220000
vt -1.5000000e-2 0.91720000
vt 9.5000000e-2 0.89720000
vt 9.5000000e-2 0.91720000
vt 0.13000000 0.62720000
vt 0.13500000 0.73720000
vt 0.15000000 0.89220000
vt 0.15000000 0.91720000
vt 0.15500000 0.55220000
vt 0.15500000 0.90720000
vt 0.15500000 0.91720000
vt 0.17000000 0.79220000
vt 0.17000000 0.89220000
vt 0.17000000 0.91720000
vt 0.23000000 0.90720000
vt 0.23000000 0.91720000
vt 0.24000000 0.52720000
vt 0.27500000 0.79220000
vt 0.27500000 0.83720000
vt 0.27500000 0.91720000
vt 0.31000000 0.90720000
vt 0.31000000 0.91720000
vt 0.32000000 0.52720000
vt 0.37500000 0.79220000
vt 0.37500000 0.88220000
vt 0.37500000 0.91720000
vt 0.39500000 0.54220000
vt 0.39500000 0.90720000
vt 0.39500000 0.91720000
vt 0.40000000 0.88220000
vt 0.40000000 0.91720000
vt 0.41000000 0.75220000
vt 0.43000000 0.59720000
vt 0.43000000 0.69220000
vt 0.44000000 0.89220000
vt 0.44000000 0.91720000
vt 0.50000000 0.90220000
vt 0.50000000 0.91720000
vt 0.59500000 0.90720000
vt 0.59500000 0.91720000
vt 0.65000000 0.90720000
vt 0.65000000 0.91720000
vt 0.79220000 0.26570000
vt 0.79220000 0.36570000
vt 0.89220000 0.26570000
vt 0.89220000 0.36570000
vn 0.0000000e+0 0.0000000e+0 1.00000000
vn 0.0000000e+0 0.0000000e+0 1.00000000
vn 0.0000000e+0 0.0000000e+0 1.00000000
vn 0.0000000e+0 0.0000000e+0 1.00000000
vn 0.0000000e+0 0.0000000e+0 1.00000000
vn 0.0000000e+0 0.0000000e+0 1.00000000
vn 0.0000000e+0 0.0000000e+0 -1.00000000
vn 0.0000000e+0 0.0000000e+0 -1.00000000
vn 0.0000000e+0 0.0000000e+0 -1.00000000
vn 0.0000000e+0 0.0000000e+0 -1.00000000
vn 0.0000000e+0 0.0000000e+0 -1.00000000
vn 0.0000000e+0 0.0000000e+0 -1.00000000
vn 0.0000000e+0 1.00000000 0.0000000e+0
vn 0.0000000e+0 1.00000000 0.0000000e+0
vn 0.0000000e+0 1.00000000 0.0000000e+0
vn 0.0000000e+0 1.00000000 0.0000000e+0
vn 0.0000000e+0 1.00000000 0.0000000e+0
vn 0.0000000e+0 1.00000000 0.0000000e+0
vn 0.0000000e+0 -1.00000000 0.0000000e+0
vn 0.0000000e+0 -1.00000000 0.0000000e+0
vn 0.0000000e+0 -1.00000000 0.0000000e+0
vn 0.0000000e+0 -1.00000000 0.0000000e+0
vn 0.0000000e+0 -1.00000000 0.0000000e+0
vn 0.0000000e+0 -1.00000000 0.0000000e+0
vn 1.00000000 0.0000000e+0 0.0000000e+0
vn 1.00000000 0.0000000e+0 0.0000000e+0
vn 1.00000000 0.0000000e+0 0.0000000e+0
vn 1.00000000 0.0000000e+0 0.0000000e+0
vn 1.00000000 0.0000000e+0 0.0000000e+0
vn 1.00000000 0.0000000e+0 0.0000000e+0
vn -1.00000000 0.0000000e+0 0.0000000e+0
vn -1.00000000 0.0000000e+0 0.0000000e+0
vn -1.00000000 0.0000000e+0 0.0000000e+0
vn -1.00000000 0.0000000e+0 0.0000000e+0
vn -1.00000000 0.0000000e+0 0.0000000e+0
vn -1.00000000 0.0000000e+0 0.0000000e+0
vn -0.22215212 -0.13788752 0.96521265
vn -0.22215212 -0.13788752 0.96521265
vn -0.22215212 -0.13788752 0.96521265
vn -0.30787615 5.7201033e-2 0.94970539
vn -0.30787615 5.7201033e-2 0.94970539
vn -0.30787615 5.7201033e-2 0.94970539
vn -0.19178230 -0.10015298 0.97631395
vn -0.19178230 -0.10015298 0.97631395
vn -0.19178230 -0.10015298 0.97631395
vn 9.0813446e-3 -0.24406114 0.96971733
vn 9.0813446e-3 -0.24406114 0.96971733
vn 9.0813446e-3 -0.24406114 0.96971733
vn -6.4408069e-2 -0.21469356 0.97455542
vn -6.4408069e-2 -0.21469356 0.97455542
vn -6.4408069e-2 -0.21469356 0.97455542
vn 0.0000000e+0 -0.22369241 0.97465979
vn 0.0000000e+0 -0.22369241 0.97465979
vn 0.0000000e+0 -0.22369241 0.97465979
vn 6.6817837e-2 -0.21381708 0.97458588
vn 6.6817837e-2 -0.21381708 0.97458588
vn 6.6817837e-2 -0.21381708 0.97458588
vn 0.29197070 -0.10725454 0.95039443
vn 0.29197070 -0.10725454 0.95039443
vn 0.29197070 -0.10725454 0.95039443
vn 8.9207726e-2 -0.25368447 0.96316466
vn 8.9207726e-2 -0.25368447 0.96316466
vn 8.9207726e-2 -0.25368447 0.96316466
vn 0.36107580 0.16549308 0.91773433
vn 0.36107580 0.16549308 0.91773433
vn 0.36107580 0.16549308 0.91773433
vn -0.58549055 0.81067923 0.0000000e+0
vn -0.58549055 0.81067923 0.0000000e+0
vn -0.58549055 0.81067923 0.0000000e+0
vn -0.58549055 0.81067923 0.0000000e+0
vn -0.58549055 0.81067923 0.0000000e+0
vn -0.58549055 0.81067923 0.0000000e+0
vn -0.22265367 0.92486908 -0.30828969
vn -0.22265367 0.92486908 -0.30828969
vn -0.22265367 0.92486908 -0.30828969
vn 0.0000000e+0 1.00000000 0.0000000e+0
vn 0.0000000e+0 1.00000000 0.0000000e+0
vn 0.0000000e+0 1.00000000 0.0000000e+0
vn -0.92096725 0.38963999 0.0000000e+0
vn -0.92096725 0.38963999 0.0000000e+0
vn -0.92096725 0.38963999 0.0000000e+0
vn -0.92096725 0.38963999 0.0000000e+0
vn -0.92096725 0.38963999 0.0000000e+0
vn -0.92096725 0.38963999 0.0000000e+0
vn -0.99194978 0.12663189 0.0000000e+0
vn -0.99194978 0.12663189 0.0000000e+0
vn -0.99194978 0.12663189 0.0000000e+0
vn -0.99194978 0.12663189 0.0000000e+0
vn -0.99194978 0.12663189 0.0000000e+0
vn -0.99194978 0.12663189 0.0000000e+0
vn -0.52999894 -0.84799830 0.0000000e+0
vn -0.52999894 -0.84799830 0.0000000e+0
vn -0.52999894 -0.84799830 0.0000000e+0
vn -0.52999894 -0.84799830 0.0000000e+0
vn -0.52999894 -0.84799830 0.0000000e+0
vn -0.52999894 -0.84799830 0.0000000e+0
vn -0.28734789 -0.95782629 0.0000000e+0
vn -0.28734789 -0.95782629 0.0000000e+0
vn -0.28734789 -0.95782629 0.0000000e+0
vn -0.28734789 -0.95782629 0.0000000e+0
vn -0.28734789 -0.95782629 0.0000000e+0
vn -0.28734789 -0.95782629 0.0000000e+0
vn 0.0000000e+0 -1.00000000 0.0000000e+0
vn 0.0000000e+0 -1.00000000 0.0000000e+0
vn 0.0000000e+0 -1.00000000 0.0000000e+0
vn 0.0000000e+0 -1.00000000 0.0000000e+0
vn 0.0000000e+0 -1.00000000 0.0000000e+0
vn 0.0000000e+0 -1.00000000 0.0000000e+0
vn 0.29827499 -0.95447998 0.0000000e+0
vn 0.29827499 -0.95447998 0.0000000e+0
vn 0.29827499 -0.95447998 0.0000000e+0
vn 0.29827499 -0.95447998 0.0000000e+0
vn 0.29827499 -0.95447998 0.0000000e+0
vn 0.29827499 -0.95447998 0.0000000e+0
vn 0.99778516 6.6519011e-2 0.0000000e+0
vn 0.99778516 6.6519011e-2 0.0000000e+0
vn 0.99778516 6.6519011e-2 0.0000000e+0
vn 0.99778516 6.6519011e-2 0.0000000e+0
vn 0.99778516 6.6519011e-2 0.0000000e+0
vn 0.99778516 6.6519011e-2 0.0000000e+0
vn 0.91381155 -0.40613847 0.0000000e+0
vn 0.91381155 -0.40613847 0.0000000e+0
vn 0.91381155 -0.40613847 0.0000000e+0
vn 0.91381155 -0.40613847 0.0000000e+0
vn 0.91381155 -0.40613847 0.0000000e+0
vn 0.91381155 -0.40613847 0.0000000e+0
vn 0.77272625 0.63473942 0.0000000e+0
vn 0.77272625 0.63473942 0.0000000e+0
vn 0.77272625 0.63473942 0.0000000e+0
vn 0.77272625 0.63473942 0.0000000e+0
vn 0.77272625 0.63473942 0.0000000e+0
vn 0.77272625 0.63473942 0.0000000e+0
vn 0.31622777 0.94868330 0.0000000e+0
vn 0.31622777 0.94868330 0.0000000e+0
vn 0.31622777 0.94868330 0.0000000e+0
vn 0.0000000e+0 0.94868330 -0.31622777
vn 0.0000000e+0 0.94868330 -0.31622777
vn 0.0000000e+0 0.94868330 -0.31622777
vn 2.2155310e-2 0.26586372 -0.96375600
vn 2.2155310e-2 0.26586372 -0.96375600
vn 2.2155310e-2 0.26586372 -0.96375600
vn -6.4318702e-2 2.7211759e-2 -0.99755833
vn -6.4318702e-2 2.7211759e-2 -0.99755833
vn -6.4318702e-2 2.7211759e-2 -0.99755833
vn -5.9959384e-2 -1.3581960e-2 -0.99810841
vn -5.9959384e-2 -1.3581960e-2 -0.99810841
vn -5.9959384e-2 -1.3581960e-2 -0.99810841
vn 1.3890515e-2 -0.11028227 -0.99380324
vn 1.3890515e-2 -0.11028227 -0.99380324
vn 1.3890515e-2 -0.11028227 -0.99380324
vn 2.3940445e-3 -0.10254491 -0.99472550
vn 2.3940445e-3 -0.10254491 -0.99472550
vn 2.3940445e-3 -0.10254491 -0.99472550
vn 0.0000000e+0 -0.10202887 -0.99478144
vn 0.0000000e+0 -0.10202887 -0.99478144
vn 0.0000000e+0 -0.10202887 -0.99478144
vn 2.9746330e-2 -9.5188257e-2 -0.99501475
vn 2.9746330e-2 -9.5188257e-2 -0.99501475
vn 2.9746330e-2 -9.5188257e-2 -0.99501475
vn 4.2813205e-2 -8.5626411e-2 -0.99540703
vn 4.2813205e-2 -8.5626411e-2 -0.99540703
vn 4.2813205e-2 -8.5626411e-2 -0.99540703
vn 6.9699283e-2 -3.0977459e-2 -0.99708696
vn 6.9699283e-2 -3.0977459e-2 -0.99708696
vn 6.9699283e-2 -3.0977459e-2 -0.99708696
vn 5.4018444e-2 0.18456302 -0.98133506
vn 5.4018444e-2 0.18456302 -0.98133506
vn 5.4018444e-2 0.18456302 -0.98133506
vn -0.58549055 0.81067923 0.0000000e+0
vn -0.58549055 0.81067923 0.0000000e+0
vn -0.58549055 0.81067923 0.0000000e+0
vn -0.58549055 0.81067923 0.0000000e+0
vn -0.58549055 0.81067923 0.0000000e+0
vn -0.58549055 0.81067923 0.0000000e+0
vn 0.23530633 0.47649532 -0.84710279
vn 0.23530633 0.47649532 -0.84710279
vn 0.23530633 0.47649532 -0.84710279
vn 0.0000000e+0 1.00000000 0.0000000e+0
vn 0.0000000e+0 1.00000000 0.0000000e+0
vn 0.0000000e+0 1.00000000 0.0000000e+0
vn -0.92096725 0.38963999 0.0000000e+0
vn -0.92096725 0.38963999 0.0000000e+0
vn -0.92096725 0.38963999 0.0000000e+0
vn -0.92096725 0.38963999 0.0000000e+0
vn -0.92096725 0.38963999 0.0000000e+0
vn -0.92096725 0.38963999 0.0000000e+0
vn -0.99194978 0.12663189 0.0000000e+0
vn -0.99194978 0.12663189 0.0000000e+0
vn -0.99194978 0.12663189 0.0000000e+0
vn -0.99194978 0.12663189 0.0000000e+0
vn -0.99194978 0.12663189 0.0000000e+0
vn -0.99194978 0.12663189 0.0000000e+0
vn -0.52999894 -0.84799830 0.0000000e+0
vn -0.52999894 -0.84799830 0.0000000e+0
vn -0.52999894 -0.84799830 0.0000000e+0
vn -0.52999894 -0.84799830 0.0000000e+0
vn -0.52999894 -0.84799830 0.0000000e+0
vn -0.52999894 -0.84799830 0.0000000e+0
vn -0.28734789 -0.95782629 0.0000000e+0
vn -0.28734789 -0.95782629 0.0000000e+0
vn -0.28734789 -0.95782629 0.0000000e+0
vn -0.28734789 -0.95782629 0.0000000e+0
vn -0.28734789 -0.95782629 0.0000000e+0
vn -0.28734789 -0.95782629 0.0000000e+0
vn 0.0000000e+0 -1.00000000 0.0000000e+0
vn 0.0000000e+0 -1.00000000 0.0000000e+0
vn 0.0000000e+0 -1.00000000 0.0000000e+0
vn 0.0000000e+0 -1.00000000 0.0000000e+0
vn 0.0000000e+0 -1.00000000 0.0000000e+0
vn 0.0000000e+0 -1.00000000 0.0000000e+0
vn 0.29827499 -0.95447998 0.0000000e+0
vn 0.29827499 -0.95447998 0.0000000e+0
vn 0.29827499 -0.95447998 0.0000000e+0
vn 0.29827499 -0.95447998 0.0000000e+0
vn 0.29827499 -0.95447998 0.0000000e+0
vn 0.29827499 -0.95447998 0.0000000e+0
vn 0.99778516 6.6519011e-2 0.0000000e+0
vn 0.99778516 6.6519011e-2 0.0000000e+0
vn 0.99778516 6.6519011e-2 0.0000000e+0
vn 0.99778516 6.6519011e-2 0.0000000e+0
vn 0.99778516 6.6519011e-2 0.0000000e+0
vn 0.99778516 6.6519011e-2 0.0000000e+0
vn 0.91381155 -0.40613847 0.0000000e+0
vn 0.91381155 -0.40613847 0.0000000e+0
vn 0.91381155 -0.40613847 0.0000000e+0
vn 0.91381155 -0.40613847 0.0000000e+0
vn 0.91381155 -0.40613847 0.0000000e+0
vn 0.91381155 -0.40613847 0.0000000e+0
vn 0.77272625 0.63473942 0.0000000e+0
vn 0.77272625 0.63473942 0.0000000e+0
vn 0.77272625 0.63473942 0.0000000e+0
vn 0.77272625 0.63473942 0.0000000e+0
vn 0.77272625 0.63473942 0.0000000e+0
vn 0.77272625 0.63473942 0.0000000e+0
vn -0.66436384 0.74740932 0.0000000e+0
vn -0.66436384 0.74740932 0.0000000e+0
vn -0.66436384 0.74740932 0.0000000e+0
vn 0.0000000e+0 0.49026124 -0.87157554
vn 0.0000000e+0 0.49026124 -0.87157554
vn 0.0000000e+0 0.49026124 -0.87157554
g unnamed_object1_default
usemtl default
s 1
f 2/45/2 3/48/3 1/47/1
f 5/48/5 6/45/6 4/46/4
f 8/45/8 9/48/9 7/46/7
f 11/48/11 12/45/12 10/47/10
f 14/45/14 15/48/15 13/46/13
f 17/48/17 18/45/18 16/47/16
f 20/45/20 21/48/21 19/46/19
f 23/48/23 24/45/24 22/47/22
f 26/45/26 27/48/27 25/46/25
f 29/48/29 30/45/30 28/47/28
f 32/45/32 33/48/33 31/46/31
f 35/48/35 36/45/36 34/47/34
f 38/34/38 39/20/39 37/26/37
f 41/36/41 42/20/42 40/34/40
f 44/35/44 45/20/45 43/36/43
f 47/29/47 48/20/48 46/35/46
f 50/25/50 51/20/51 49/29/49
f 53/19/53 54/20/54 52/25/52
f 56/11/56 57/20/57 55/19/55
f 59/7/59 60/20/60 58/11/58
f 62/8/62 63/20/63 61/7/61
f 65/14/65 66/20/66 64/8/64
f 68/33/68 69/37/69 67/32/67
f 71/37/71 72/33/72 70/38/70
f 74/22/74 75/27/75 73/21/73
f 77/27/77 78/22/78 76/28/76
f 80/38/80 81/39/81 79/37/79
f 83/39/83 84/38/84 82/40/82
f 86/40/86 87/41/87 85/39/85
f 89/41/89 90/40/90 88/42/88
f 92/42/92 93/43/93 91/41/91
f 95/43/95 96/42/96 94/44/94
f 98/13/98 99/17/99 97/12/97
f 101/17/101 102/13/102 100/18/100
f 104/18/104 105/23/105 103/17/103
f 107/23/107 108/18/108 106/24/106
f 110/24/110 111/30/111 109/23/109
f 113/30/113 114/24/114 112/31/112
f 116/2/116 117/3/117 115/1/115
f 119/3/119 120/2/120 118/4/118
f 122/4/122 123/5/123 121/3/121
f 125/5/125 126/4/126 124/6/124
f 128/6/128 129/9/129 127/5/127
f 131/9/131 132/6/132 130/10/130
f 134/16/134 135/21/135 133/15/133
f 137/21/137 138/16/138 136/22/136
f 140/26/140 141/20/141 139/34/139
f 143/34/143 144/20/144 142/36/142
f 146/36/146 147/20/147 145/35/145
f 149/35/149 150/20/150 148/29/148
f 152/29/152 153/20/153 151/25/151
f 155/25/155 156/20/156 154/19/154
f 158/19/158 159/20/159 157/11/157
f 161/11/161 162/20/162 160/7/160
f 164/7/164 165/20/165 163/8/163
f 167/8/167 168/20/168 166/14/166
f 170/32/170 171/37/171 169/33/169
f 173/38/173 174/33/174 172/37/172
f 176/21/176 177/27/177 175/22/175
f 179/28/179 180/22/180 178/27/178
f 182/37/182 183/39/183 181/38/181
f 185/40/185 186/38/186 184/39/184
f 188/39/188 189/41/189 187/40/187
f 191/42/191 192/40/192 190/41/190
f 194/41/194 195/43/195 193/42/193
f 197/44/197 198/42/198 196/43/196
f 200/12/200 201/17/201 199/13/199
f 203/18/203 204/13/204 202/17/202
f 206/17/206 207/23/207 205/18/205
f 209/24/209 210/18/210 208/23/208
f 212/23/212 213/30/213 211/24/211
f 215/31/215 216/24/216 214/30/214
f 218/1/218 219/3/219 217/2/217
f 221/4/221 222/2/222 220/3/220
f 224/3/224 225/5/225 223/4/223
f 227/6/227 228/4/228 226/5/226
f 230/5/230 231/9/231 229/6/229
f 233/10/233 234/6/234 232/9/232
f 236/15/236 237/21/237 235/16/235
f 239/22/239 240/16/240 238/21/238
